<!DOCTYPE svg PUBLIC "-//W3C//DTD SVG 1.1//EN" "http://www.w3.org/Graphics/SVG/1.1/DTD/svg11.dtd">
<svg version="1.1" xmlns="http://www.w3.org/2000/svg" xmlns:xlink="http://www.w3.org/1999/xlink"
        width="400" height="150" viewBox="0 0 75 25">
    <title>sml-rs logo</title>
    <style type="text/css">
        .digit-text {
            font-family: 'Courier New', Courier, monospace;
            font-size: 13px;
            text-anchor: middle;
            fill: url('#digit-text-gradient');
        }
    </style>

    <defs>
        <linearGradient id="digit-bg-gradient" gradientTransform="rotate(90)">
            <stop offset="0%"  stop-color="#000" />
            <stop offset="50%" stop-color="#333" />
            <stop offset="100%"  stop-color="#000" />
        </linearGradient>
        <linearGradient id="digit-text-gradient" gradientTransform="rotate(90)">
            <stop offset="0%"  stop-color="#aaa" />
            <stop offset="50%" stop-color="#fff" />
            <stop offset="100%"  stop-color="#555" />
        </linearGradient>

        <g id="digit">
            <rect
                stroke-width="1"
                stroke="#000000"
                fill="url('#digit-bg-gradient')"
                width="10"
                height="16"
                x="5"
                y="5"
                ry="1" />
        </g>
    </defs>

    <rect
       fill="#555"
       width="42"
       height="22"
       x="2"
       y="2"
       ry="2.5"/>
    <rect
       fill="#555"
       width="25"
       height="22"
       x="22"
       y="2"/>
    <rect
       fill="#ed0000"
       width="29"
       height="22"
       x="44"
       y="2"
       ry="2.5"/>
    <rect
       fill="#ed0000"
       width="15"
       height="22"
       x="44"
       y="2"/>
    
    <use transform="translate( 0,0)" xlink:href="#digit" />
    <use transform="translate(13,0)" xlink:href="#digit" />
    <use transform="translate(26,0)" xlink:href="#digit" />
    <g id="s"><path style="fill:url(#digit-text-gradient)" d="m 11.761475,10.852051 q 0,-0.184082 0.07617,-0.266602 0.07617,-0.08252 0.19043,-0.08252 0.120606,0 0.196778,0.08252 0.07617,0.08252 0.07617,0.279297 v 0.914063 q 0,0.190429 -0.07617,0.272949 -0.07617,0.08252 -0.196778,0.08252 -0.10791,0 -0.184082,-0.06982 -0.06982,-0.06982 -0.08252,-0.228515 -0.03809,-0.38086 -0.393555,-0.628418 -0.520508,-0.355469 -1.3774415,-0.355469 -0.8950195,0 -1.3901367,0.361816 -0.3745117,0.272949 -0.3745117,0.609375 0,0.38086 0.4443359,0.634766 0.3046875,0.177734 1.1552735,0.272949 1.1108395,0.120606 1.5424805,0.272949 0.615723,0.222168 0.914062,0.615723 0.304688,0.393555 0.304688,0.850586 0,0.679199 -0.653809,1.212402 -0.653808,0.526856 -1.916992,0.526856 -1.2631835,0 -2.0693358,-0.641114 0,0.215821 -0.025391,0.279297 -0.025391,0.06348 -0.095215,0.10791 Q 7.7624512,16 7.6799316,16 7.5656738,16 7.489502,15.91748 7.4133301,15.834961 7.4133301,15.644531 v -1.098144 q 0,-0.19043 0.069824,-0.272949 0.076172,-0.08252 0.1967773,-0.08252 0.1142579,0 0.1904297,0.08252 0.08252,0.07617 0.08252,0.209472 0,0.291992 0.1459961,0.48877 0.2221679,0.304687 0.7045898,0.507812 0.4887695,0.196778 1.1933594,0.196778 1.0410158,0 1.5488278,-0.387207 0.507813,-0.387208 0.507813,-0.818848 0,-0.495117 -0.51416,-0.793457 -0.520508,-0.29834 -1.51709,-0.399903 Q 9.0319824,13.175293 8.6003418,13.010254 8.1687012,12.845215 7.9274902,12.515137 7.6862793,12.185059 7.6862793,11.804199 q 0,-0.685547 0.6728516,-1.085449 0.6728515,-0.40625 1.605957,-0.40625 1.1044921,0 1.7963871,0.539551 z" /></g>
    <path style="fill:url(#digit-text-gradient)" d="m 20.572021,10.50293 v 0.53955 q 0.6792,-0.72998 1.364747,-0.72998 0.412597,0 0.723632,0.222168 0.311036,0.21582 0.520508,0.660156 0.355469,-0.444336 0.717285,-0.660156 0.368164,-0.222168 0.736328,-0.222168 0.577637,0 0.920411,0.374512 0.450683,0.482422 0.450683,1.053711 v 3.726074 h 0.450684 q 0.19043,0 0.272949,0.07617 0.08252,0.06982 0.08252,0.190429 0,0.114258 -0.08252,0.19043 Q 26.646729,16 26.456299,16 h -0.983887 v -4.208496 q 0,-0.40625 -0.247558,-0.672852 -0.247559,-0.266601 -0.57129,-0.266601 -0.291992,0 -0.615722,0.222168 -0.323731,0.21582 -0.736328,0.856933 v 3.535645 h 0.444336 q 0.190429,0 0.272949,0.07617 0.08252,0.06982 0.08252,0.190429 0,0.114258 -0.08252,0.19043 Q 23.936279,16 23.74585,16 h -0.983887 v -4.17041 q 0,-0.425293 -0.253906,-0.698242 -0.247559,-0.279297 -0.558594,-0.279297 -0.285645,0 -0.564942,0.184082 -0.387207,0.260254 -0.8125,0.895019 v 3.535645 h 0.450684 q 0.19043,0 0.272949,0.07617 0.08252,0.06982 0.08252,0.190429 0,0.114258 -0.08252,0.19043 Q 21.213135,16 21.022705,16 h -1.43457 q -0.19043,0 -0.272949,-0.07617 -0.08252,-0.07617 -0.08252,-0.19043 0,-0.120605 0.08252,-0.190429 0.08252,-0.07617 0.272949,-0.07617 h 0.450683 V 11.04248 h -0.450683 q -0.19043,0 -0.272949,-0.07617 -0.08252,-0.07617 -0.08252,-0.196778 0,-0.114258 0.08252,-0.190429 0.08252,-0.07617 0.272949,-0.07617 z" />
    <path style="fill:url(#digit-text-gradient)" d="m 36.269775,8.0336914 v 7.4331056 h 2.094727 q 0.196777,0 0.279297,0.07617 0.08252,0.06982 0.08252,0.190429 0,0.114258 -0.08252,0.19043 Q 38.561279,16 38.364502,16 h -4.722656 q -0.19043,0 -0.27295,-0.07617 -0.08252,-0.07617 -0.08252,-0.19043 0,-0.120605 0.08252,-0.190429 0.08252,-0.07617 0.27295,-0.07617 h 2.094726 V 8.5732422 h -1.536133 q -0.190429,0 -0.279296,-0.076172 -0.08252,-0.076172 -0.08252,-0.1967773 0,-0.1142578 0.08252,-0.1904297 0.08252,-0.076172 0.279296,-0.076172 z" />

    <use transform="translate(42,0)" xlink:href="#digit" />
    <use transform="translate(55,0)" xlink:href="#digit" />
    <path style="fill:url(#digit-text-gradient)" d="m 51.362061,10.50293 v 1.345703 q 1.041015,-0.939453 1.555175,-1.206055 0.520508,-0.272949 0.958496,-0.272949 0.476075,0 0.882325,0.32373 0.412597,0.317383 0.412597,0.482422 0,0.120606 -0.08252,0.203125 -0.07617,0.07617 -0.196778,0.07617 -0.06348,0 -0.10791,-0.01904 -0.04443,-0.02539 -0.165039,-0.145996 -0.222168,-0.222168 -0.387207,-0.304687 -0.165039,-0.08252 -0.32373,-0.08252 -0.349121,0 -0.844239,0.279297 -0.488769,0.279297 -1.701171,1.364746 v 2.919922 h 2.361328 q 0.196777,0 0.279297,0.07617 0.08252,0.06982 0.08252,0.190429 0,0.114258 -0.08252,0.19043 Q 53.920166,16 53.723389,16 h -4.183106 q -0.190429,0 -0.272949,-0.06982 -0.08252,-0.07617 -0.08252,-0.19043 0,-0.10791 0.07617,-0.177734 0.08252,-0.07617 0.279297,-0.07617 h 1.288574 v -4.44336 h -0.983886 q -0.19043,0 -0.27295,-0.07617 -0.08252,-0.07617 -0.08252,-0.196778 0,-0.114258 0.07617,-0.190429 0.08252,-0.07617 0.279297,-0.07617 z" />
    <use transform="translate(55,0)" xlink:href="#s" />
</svg>